<svg xmlns="http://www.w3.org/2000/svg" viewBox="0 0 322 86"><defs><style>.cls-1{fill:#fff;}.cls-2{fill:#ed362e;}.cls-3{fill:none;}</style></defs><g id="Camada_2" data-name="Camada 2"><g id="Camada_1-2" data-name="Camada 1"><path class="cls-1" d="M10.68,17.91A1.12,1.12,0,0,1,11,17.1a1.11,1.11,0,0,1,.86-.34h7.72a1.23,1.23,0,0,1,.81.31,1.15,1.15,0,0,1,.39.84V46.27H35.1a1.12,1.12,0,0,1,.81.31,1.11,1.11,0,0,1,.34.86V54.3a1.27,1.27,0,0,1-.3.81,1.12,1.12,0,0,1-.85.39H11.83a1,1,0,0,1-1.15-1.15Z"/><path class="cls-1" d="M40.24,39a17,17,0,0,1,5-12.16,16.48,16.48,0,0,1,3.46-2.65,17.09,17.09,0,0,1,4.1-1.69,17.42,17.42,0,0,1,4.6-.6,17,17,0,0,1,12.09,4.94,17.22,17.22,0,0,1,3.64,5.42A16.77,16.77,0,0,1,74.47,39a17.39,17.39,0,0,1-2.34,8.71,16.76,16.76,0,0,1-2.65,3.45,17,17,0,0,1-7.54,4.37,17.05,17.05,0,0,1-4.55.6,17.42,17.42,0,0,1-4.6-.6,16.74,16.74,0,0,1-4.1-1.71,16.91,16.91,0,0,1-6.12-6.11,17.41,17.41,0,0,1-1.72-4.11A17,17,0,0,1,40.24,39Zm9.51,0a9.42,9.42,0,0,0,.54,3.22,7.82,7.82,0,0,0,1.51,2.59,7.15,7.15,0,0,0,2.37,1.74,7.56,7.56,0,0,0,3.14.63,7.26,7.26,0,0,0,3.07-.63,7,7,0,0,0,2.32-1.74,7.72,7.72,0,0,0,1.46-2.59,10.29,10.29,0,0,0,0-6.4,8.26,8.26,0,0,0-1.46-2.66,6.85,6.85,0,0,0-5.39-2.48,7.27,7.27,0,0,0-3.14.67,7.07,7.07,0,0,0-2.37,1.81,8.37,8.37,0,0,0-1.51,2.66A9.4,9.4,0,0,0,49.75,39Z"/><path class="cls-1" d="M100.85,45.3a1.77,1.77,0,0,1,.69-.32,2.41,2.41,0,0,1,.51-.07,1.85,1.85,0,0,1,.81.18,2.29,2.29,0,0,1,.75.79l2.92,4.4a4.12,4.12,0,0,1,.25.47,1.09,1.09,0,0,1,.12.42,1.35,1.35,0,0,1-.38,1,5.16,5.16,0,0,1-.82.66A19.86,19.86,0,0,1,101,55.2a16,16,0,0,1-5.39.9,16.94,16.94,0,0,1-4.52-.6,16.55,16.55,0,0,1-4-1.71,17.68,17.68,0,0,1-3.44-2.66A16.14,16.14,0,0,1,81,47.68a17.81,17.81,0,0,1-1.71-4.11,17,17,0,0,1-.61-4.6,17.22,17.22,0,0,1,.61-4.62A17.55,17.55,0,0,1,81,30.25a16.08,16.08,0,0,1,2.66-3.44,16.95,16.95,0,0,1,12-4.94,17.64,17.64,0,0,1,5.26.75,16.62,16.62,0,0,1,4.52,2.25l-.08-.08a3,3,0,0,1,.91.79,1.84,1.84,0,0,1,.34,1.14,1.78,1.78,0,0,1-.31,1L104,31.62a2.09,2.09,0,0,1-1.77,1.27,1.76,1.76,0,0,1-.58-.11,3.17,3.17,0,0,1-.75-.41,12.3,12.3,0,0,0-2.46-1.23,8,8,0,0,0-2.81-.49,6.92,6.92,0,0,0-3,.67,7.13,7.13,0,0,0-2.36,1.81,8.61,8.61,0,0,0-1.53,2.66,9.75,9.75,0,0,0,0,6.4,8,8,0,0,0,1.53,2.59,7.06,7.06,0,0,0,5.38,2.37,7.4,7.4,0,0,0,2.79-.52A12.11,12.11,0,0,0,100.85,45.3Z"/><path class="cls-1" d="M145.92,53.57a2.17,2.17,0,0,1-.16.84,1.22,1.22,0,0,1-.52.64,1.27,1.27,0,0,1-.68.37,3.65,3.65,0,0,1-.67.08h-5.14a2.26,2.26,0,0,1-.89-.15,1.37,1.37,0,0,1-.54-.4,2.17,2.17,0,0,1-.35-.64c-.1-.25-.2-.53-.3-.82l-.34-1.17a15,15,0,0,1-1.61,1.38,12.9,12.9,0,0,1-2,1.21,12.07,12.07,0,0,1-2.32.86,9.89,9.89,0,0,1-2.57.33,17,17,0,0,1-4.54-.6,16.69,16.69,0,0,1-4.07-1.71,17,17,0,0,1-7.78-10.22,17.42,17.42,0,0,1-.6-4.6,16.87,16.87,0,0,1,17-17.1,12.08,12.08,0,0,1,3,.36,12.29,12.29,0,0,1,2.55,1,10.53,10.53,0,0,1,2.1,1.5,11.7,11.7,0,0,1,1.64,1.89l.76-2.37c.17-.43.31-.79.43-1.06a1.94,1.94,0,0,1,.36-.6,1.12,1.12,0,0,1,.48-.26,4.24,4.24,0,0,1,.81-.06h3.89a3.65,3.65,0,0,1,.67.08,1.25,1.25,0,0,1,.68.36,1.58,1.58,0,0,1,.52.65,2.06,2.06,0,0,1,.16.84ZM120.24,39a9.42,9.42,0,0,0,.54,3.22,7.51,7.51,0,0,0,1.52,2.59,7.33,7.33,0,0,0,2.39,1.74,7.42,7.42,0,0,0,3.09.63,8.28,8.28,0,0,0,3.24-.63,8.4,8.4,0,0,0,2.61-1.74,7.7,7.7,0,0,0,1.73-2.59A8.36,8.36,0,0,0,131,31.32a8,8,0,0,0-3.24-.67,7.14,7.14,0,0,0-3.09.67,7.24,7.24,0,0,0-2.39,1.81,8,8,0,0,0-1.52,2.66A9.4,9.4,0,0,0,120.24,39Z"/><path class="cls-1" d="M152.18,14.54a2.36,2.36,0,0,1,.41-1.4,1.65,1.65,0,0,1,1.44-.58h6.38a1.17,1.17,0,0,1,.55.15,2,2,0,0,1,.54.4,2.31,2.31,0,0,1,.41.62,1.84,1.84,0,0,1,.17.81v39a1.9,1.9,0,0,1-.56,1.5,2,2,0,0,1-1.44.51H154a1.77,1.77,0,0,1-1.44-.51,2.37,2.37,0,0,1-.41-1.5Z"/><path class="cls-1" d="M168.31,11.23a2.13,2.13,0,0,1,.47-1.55,2,2,0,0,1,1.46-.46h6a2.27,2.27,0,0,1,1.47.46,1.88,1.88,0,0,1,.56,1.55v5.09a2,2,0,0,1-.14.67,3.14,3.14,0,0,1-.4.71,2.46,2.46,0,0,1-.64.56,1.66,1.66,0,0,1-.85.22h-6c-1.28,0-1.93-.72-1.93-2.16Zm0,13.19a2.28,2.28,0,0,1,.47-1.43,1.74,1.74,0,0,1,1.46-.6h6a2,2,0,0,1,.68.14,2.56,2.56,0,0,1,.68.42,2.74,2.74,0,0,1,.53.64,1.54,1.54,0,0,1,.22.83V53.49a2,2,0,0,1-.54,1.5,2.23,2.23,0,0,1-1.57.51h-6c-1.28,0-1.93-.67-1.93-2Z"/><path class="cls-1" d="M216.56,22.86a1.66,1.66,0,0,1,.72-.37,3.69,3.69,0,0,1,.72-.08h3.93a1.8,1.8,0,0,1,.81.17,1.88,1.88,0,0,1,.58.46,2.44,2.44,0,0,1,.37.65c.1.24.19.49.28.75l.55,2.29a7.69,7.69,0,0,1,1.12-1.66,7.38,7.38,0,0,1,1.85-1.56,10.28,10.28,0,0,1,2.67-1.16,13,13,0,0,1,3.64-.46,12.53,12.53,0,0,1,3,.33,9.62,9.62,0,0,1,2.45,1,9.83,9.83,0,0,1,2,1.56A14.83,14.83,0,0,1,243,26.86a8,8,0,0,1,1.47-1.69,11.6,11.6,0,0,1,2.34-1.61,14.41,14.41,0,0,1,3-1.2,13.18,13.18,0,0,1,3.55-.47A11.15,11.15,0,0,1,258.53,23a10.51,10.51,0,0,1,3.69,3.12,13.8,13.8,0,0,1,2.21,4.61,21.46,21.46,0,0,1,.73,5.64V53.49a2.31,2.31,0,0,1-.43,1.5,1.71,1.71,0,0,1-1.37.51h-6a2.32,2.32,0,0,1-1.53-.38,2,2,0,0,1-.42-1.47V36.41a6.14,6.14,0,0,0-.35-2.08,5.38,5.38,0,0,0-1-1.68,4.45,4.45,0,0,0-1.52-1.12,4.83,4.83,0,0,0-2-.41,4.62,4.62,0,0,0-1.88.39,5,5,0,0,0-1.56,1.08A5.34,5.34,0,0,0,246,34.26a5.6,5.6,0,0,0-.41,2.15V53.49a2.26,2.26,0,0,1-.43,1.5,1.67,1.67,0,0,1-1.36.51h-6a2.32,2.32,0,0,1-1.53-.38,2,2,0,0,1-.42-1.47V36.41a6.39,6.39,0,0,0-.33-2.08,4.94,4.94,0,0,0-.94-1.68,4.21,4.21,0,0,0-1.48-1.12,4.63,4.63,0,0,0-2-.41,4.74,4.74,0,0,0-1.84.38,5.09,5.09,0,0,0-1.61,1.07,5.94,5.94,0,0,0-1.2,1.65,5.6,5.6,0,0,0-.56,2.14V53.57a2.5,2.5,0,0,1-.17.88,1.5,1.5,0,0,1-.51.68,2.37,2.37,0,0,1-.64.29,2.84,2.84,0,0,1-.69.08H218a1.83,1.83,0,0,1-2.11-2V24.34a1.88,1.88,0,0,1,.22-.91,1.6,1.6,0,0,1,.61-.65Z"/><path class="cls-2" d="M295.42,16h0a20.7,20.7,0,0,0-18.13,30.67L295.4,74.36l18.15-27.69A20.71,20.71,0,0,0,295.42,16Zm0,33.57a12.9,12.9,0,1,1,12.9-12.9A12.9,12.9,0,0,1,295.4,49.57Z"/><path class="cls-1" d="M201.33,58.88l0,0-.07-.07,0,0-.13-.09L201,58.6h0l-.13,0-.14-.06h0l-.1,0h0a.7.7,0,0,0-.14,0H200l-.12,0-.13,0h-.06l-.12,0-.11,0,0,0-.12.07h0l-.07,0,0,0h0a23.74,23.74,0,0,1-6.93,3.1,19,19,0,0,1-6.49.55c-.62-.06-1,.58-.81,1.5s.78,1.72,1.48,1.76a22.52,22.52,0,0,0,8.24-1.12,29.82,29.82,0,0,1-6.48,5.1,33.93,33.93,0,0,1-7.52,3.23,45.15,45.15,0,0,1-16,1.57,56.15,56.15,0,0,1-15.51-3.4,46,46,0,0,1-13.55-7.7,1.93,1.93,0,0,0-2.35,2.87,49.1,49.1,0,0,0,14.46,8.23A59.58,59.58,0,0,0,164,77.94a48.78,48.78,0,0,0,17.26-1.71,37.72,37.72,0,0,0,8.34-3.59A33.75,33.75,0,0,0,197,66.85a35.51,35.51,0,0,1-5.25,9.58,1.8,1.8,0,0,0,.15,2.52,1.9,1.9,0,0,0,2.61-.56,39.86,39.86,0,0,0,5.16-9.11,32.59,32.59,0,0,0,2.19-9.12h0v0a.27.27,0,0,0,0-.09v0a.65.65,0,0,0,0-.14v-.06l0-.12a.61.61,0,0,0,0-.13v0l-.06-.13,0-.11,0-.05-.08-.11,0,0-.05-.07h0l0,0Z"/><rect class="cls-3" width="322" height="86"/><path class="cls-1" d="M209.88,46.65c-4.41-1.6-6.69-1.71-12.63-1.39L210.1,30a1.24,1.24,0,0,0,.27-.62,3.94,3.94,0,0,0,0-.55V24.29a1.81,1.81,0,0,0-.64-1.52,2.27,2.27,0,0,0-1.47-.51h-22a2.06,2.06,0,0,0-1.52.56,2,2,0,0,0-.56,1.47v4.23a1.9,1.9,0,0,0,2.08,2.16h12.7c-1.17,1.3-2.39,2.71-3.68,4.22s-2.58,3-3.88,4.59l-3.08,3.64L184,48.25c-.56.65-.95.75-.94,1.87,0,1.39,0,2.08,0,3.43a1.22,1.22,0,0,0,.18.67.94.94,0,0,0,.48.4,1.75,1.75,0,0,0,.7.11,2.08,2.08,0,0,0,.82-.23c9.26-3.14,15.43-3.14,24.68,0a2.56,2.56,0,0,0,.87.26,1.3,1.3,0,0,0,.67-.12.9.9,0,0,0,.42-.42,1.43,1.43,0,0,0,.16-.63c0-1.5,0-2.26,0-3.8A3.73,3.73,0,0,0,209.88,46.65Z"/></g></g></svg>